<?xml version="1.0" standalone="no"?><!DOCTYPE svg PUBLIC "-//W3C//DTD SVG 1.1//EN" "http://www.w3.org/Graphics/SVG/1.1/DTD/svg11.dtd"><svg t="1493901697883" class="icon" style="" viewBox="0 0 1024 1024" version="1.1" xmlns="http://www.w3.org/2000/svg" p-id="3163" xmlns:xlink="http://www.w3.org/1999/xlink" width="200" height="200"><defs><style type="text/css"></style></defs><path d="M510.8672 526.813381c-29.501918 0-53.407374 23.903409-53.407374 53.408397 0 15.816221 6.875594 30.021757 17.802458 39.800471l0 49.206702c0 19.665899 15.940041 35.606962 35.605939 35.606962 19.661805 0 35.605939-15.941064 35.605939-35.606962l0-49.206702c10.926864-9.778714 17.803481-23.984251 17.803481-39.800471C564.27662 550.71679 540.370141 526.813381 510.8672 526.813381L510.8672 526.813381zM760.108774 366.596376l-35.606962 0 0-89.010243c0-117.993345-95.637174-213.626425-213.634612-213.626425s-213.634612 95.633081-213.634612 213.626425l0 89.010243-35.605939 0c-49.167816 0-89.014336 39.84652-89.014336 89.010243l0 338.243631c0 49.15963 39.84652 89.00615 89.014336 89.00615l498.481102 0c49.148373 0 89.014336-39.84345 89.014336-89.00615l0-338.243631C849.123111 406.441872 809.256124 366.596376 760.108774 366.596376L760.108774 366.596376zM510.8672 99.564623c98.31619 0 178.028673 79.70839 178.028673 178.020486l0 89.010243L332.862064 366.595352l0-89.010243-0.023536 0C332.838527 179.273013 412.552034 99.564623 510.8672 99.564623L510.8672 99.564623zM813.516148 793.846156c0 29.501918-23.906479 53.404304-53.407374 53.404304L261.627672 847.25046c-29.502941 0-53.408397-23.902386-53.408397-53.404304L208.219275 455.606619c0-29.502941 23.906479-53.408397 53.408397-53.408397l498.481102 0c29.501918 0 53.407374 23.906479 53.407374 53.408397L813.516148 793.846156 813.516148 793.846156zM813.516148 793.846156" p-id="3164"></path></svg>